<?xml version="1.0" encoding="utf-8"?>
<!-- Generator: Adobe Illustrator 27.5.0, SVG Export Plug-In . SVG Version: 6.00 Build 0)  -->
<svg version="1.1" id="Capa_1" xmlns="http://www.w3.org/2000/svg" xmlns:xlink="http://www.w3.org/1999/xlink" x="0px" y="0px"
	 viewBox="0 0 1975 2279" style="enable-background:new 0 0 1975 2279;" xml:space="preserve">
<path style="fill:#232320;" d="M660.39,534.137c-21.084,3.158-40.387-10.085-48.507-40.459
	c-8.868-33.414,5.755-56.884,27.026-60.255c30.699-4.742,34.471,34.093,50.457,44.519c13.838-11.227-3.245-59.027,7.158-96.679
	c93.973-18.249,132.754-117.807,132.754-117.807s-15.073,55.982,0.009,59.532c61.976-20.849,91.432-97.824,91.432-97.824
	s96.828-15.443,104.438,77.09c0.013,1.514,0.021,3.027,0.006,4.538c-3.666,26.37-0.143,62.508,1.782,78.475
	c-0.177-0.235-0.292-0.472-0.487-0.706c-1.877-2.246-13.697-15.923-29.033-19.05c-19.87-4.003-39.074-2.226-41.127-1.25
	c-11.271,5.959-10.687,23.973,0.802,29.072c2.773,1.191,21.179-1.798,40.246,0.468c18.208,2.189,26.102,5.55,28.641,5.706
	c0.718,0.036,1.345-0.228,1.919-0.612c1.017,18.371,2.036,37.622,2.613,57.131c0.005,0.001,0.009,0,0.014,0.001
	c0.044,1.525,0.057,3.06,0.095,4.588c0.109,4.198,0.201,8.4,0.261,12.61c0.019,1.431,0.024,2.861,0.036,4.293
	c0.047,4.703,0.054,9.399,0.025,14.094c-0.008,1.162-0.019,2.32-0.031,3.481c-0.058,5.413-0.174,10.807-0.355,16.18
	c-0.014,0.414-0.022,0.829-0.037,1.242c-0.217,6.079-0.489,12.134-0.892,18.122c-3.287,48.954-27.99,111.022-53.014,144.126
	c35.17-13.323,56.592-42.606,72.588-78.251c-3.943,24.95-7.886,49.901-11.829,74.851c24.147-26.843,43.235-58.222,55.967-92.008
	c7.054,24.652,8.182,50.977,3.263,76.141c29.588-50.09,35.214-88.964,13.912-151.336c-23.105-67.651-53.214-89.236-58.547-177.247
	c4.809-20.386,8.426-44.485,8.426-70.961c0-64.573-27.038-131.87-91.559-147.671c-26.326-6.447-73.847,11.488-73.847,11.488
	s-154.33-65.501-248.357,32.619c-19.785,20.646-33.816,42.292-43.406,64.23l-0.003-0.001c-0.006,0.017-0.013,0.033-0.019,0.05
	c-2.049,4.691-3.901,9.394-5.554,14.105c-32.297,78.67-84.714,147.605-116.94,220.692c-26.591,60.307-14.961,107.842,18.478,183.642
	c-2.734-25.494,0.656-51.625,9.804-75.578c9.777,34.757,26.093,67.663,47.84,96.484c-1.781-25.197-3.561-50.394-5.342-75.59
	c13.994,40.116,34.979,73.338,74.788,88.182c-17.04-50.323,4.83-88.388,4.83-88.388s-3.891,57.845,37.212,81.791l2.527-131.195
	C667.214,532.443,663.67,533.623,660.39,534.137z"/>
<path style="fill:#BF7776;" d="M1758.323,838.317c-1.249-15.487-12.637-17.024-12.637-17.024s20.41-19.165,11.896-35.479
	c-3.687-7.065-13.42-7.286-22.082-5.815v0c0,0-11.395,6.69-25.703,15.914c-3.662,2.361-7.509,4.885-11.413,7.51
	c-22.087,14.853-45.759,32.813-45.305,41.31c0.529,9.924,17.497,9.028,32.335,6.318c3.519-0.643,6.911-1.386,9.943-2.113
	c7.02-1.684,12.076-3.272,12.076-3.272s-5.353,2.114-12.668,5.443c-3.295,1.5-6.99,3.251-10.773,5.163
	c-14.583,7.372-30.485,17.191-29.966,24.78c0.426,6.226,10.119,7.945,21.069,7.892c3.126-0.016,6.333-0.171,9.48-0.415
	c11.64-0.904,22.166-2.931,22.167-2.931c-0.003,0.001-16.71,6.02-25.208,14.097c-3.667,3.484-5.83,7.346-4.424,11.283
	c0.207,0.581,0.545,1.069,0.938,1.515c3.002,3.403,11.125,3.059,20.392,1.177c-4.956,9.114-16.587,17.022-26.013,19.465
	l-104.041,26.959c-8.187,2.121-15.606-5.401-13.371-13.557l32.844-119.866c-10.462,10.631-20.69,22.469-23.216,30.352
	c-5.598,17.463-16.197,131.26-16.197,131.26c-78.213,57.535-205.171,154.687-287.763,241.081
	c-13.16-27.935-29.506-60.633-48.526-101.127c-30.104,26.068-96.64,83.233-151.598,127.258c-3.616,9.972-7.452,19.071-10.893,26.639
	c52.755,79.906,109.007,154.303,132.385,184.667c3.088,5.219,6.791,10.052,11.191,14.414v0c2.865,2.84,5.968,5.517,9.429,7.937
	c109.501,76.606,317.863-285.516,407.926-411.383c0,0,84.709-51.797,101.875-101.852c17.167-50.056,42.314-61.557,41.614-78.351
	c-0.699-16.795-11.546-21.343-11.546-21.343S1759.658,854.88,1758.323,838.317z"/>
<path style="fill:#BF7c76;" d="M886.624,1075.453c0,0,94.963-37.256,81.854-56.465c-6.195-9.077-50.451,6.183-80.31,17.819
	c26.719-11.97,62.074-31.093,53.488-45.434c-7.204-12.035-117.558,32.181-117.558,32.181s100.283-40.589,81.174-61.38
	c-7.681-8.357-108.156,35.851-125.278,56.947c-13.63,16.795-57.753,93.543-75.192,124.162
	c-46.746,30.393-107.528,72.741-175.582,116.251c-3.63,2.321-7.286,4.646-10.958,6.972c-39.001,24.713-80.216,49.589-122.407,72.692
	c-45.648-15.297-97.53-45.647-139.792-95.202c-41.972,110.902-67.751,216.915-53.106,286.286
	c32.493,153.922,177.936,49.323,177.936,49.323s0.007-0.013,0.007-0.014c10.927-6.022,22.662-13.335,35-21.68
	c116.523-78.806,288.293-252.275,371.39-354.186c50.419-23.09,85.178-86.491,85.178-86.491s102.126-27.14,96.011-57.026
	C966.526,1050.666,886.624,1075.453,886.624,1075.453z"/>
<path style="fill:#3D304C;" d="M1036.571,1673.676c-10.686,5.412-31.847,9.634-60.153,12.772
	c-7.055,22.129-43.412,133.196-83.959,202.755c-47.11,80.818-88.112,123.159-88.112,123.159l-38.498,167.943h289.361
	c0,0,33.741-349.015-13.766-512.854C1040.239,1670.466,1038.657,1672.62,1036.571,1673.676z"/>
<path style="fill:#50425E;" d="M892.458,1889.204c40.547-69.559,76.904-180.627,83.959-202.755
	c-153.326,16.999-516.792,2.103-567.852-28.726c-0.049,0.088-0.118,0.167-0.166,0.256c-49.178,89.828-1.299,522.328-1.299,522.328
	h291.598h67.149l38.498-167.943C804.346,2012.363,845.348,1970.022,892.458,1889.204z"/>
<path style="fill:#1F41BB;" d="M1132.059,884.114c-31.028-52.775-101.909-67.42-101.909-67.42l-119.591-20.522
	c-0.001,0.008-6.85,83.634-92.758,90.22c-126.091,9.613-199.354-98.61-199.359-98.617l0,0c0,0-58.535,9.337-119.387,30.647
	c0,0.001-0.001,0.001-0.003,0.002c-49.325,15.686-79.063,74.948-131.911,182.175c-0.083,0.169-0.163,0.33-0.246,0.498
	c-20.356,41.301-38.174,76.996-53.268,107.421c-41.221,83.088-61.99,126.599-57.572,135.467c0.003,0.004,0.007,0.008,0.01,0.011
	c42.262,49.555,94.143,79.906,139.792,95.202c42.191-23.103,83.406-47.978,122.407-72.692
	c15.753-34.649,30.778-72.013,42.694-107.485c15.459-45.954,25.661-88.801,25.636-117.772c0-5.397-0.351-10.301-1.063-14.623
	c-6.239-38.138-9.526-98.572-56.101-147.95c-1.355-1.437-1.289-3.7,0.148-5.056c1.437-1.355,3.7-1.289,5.056,0.148
	c48.53,51.474,51.76,114.306,57.955,151.696c0.789,4.802,1.157,10.079,1.157,15.785c-0.026,30.53-10.448,73.677-26.008,120.05
	c-10.879,32.382-24.309,66.233-38.517,98.235c68.054-43.509,128.836-85.857,175.582-116.251
	c17.439-30.62,61.562-107.368,75.192-124.162c17.122-21.096,117.597-65.304,125.278-56.947c19.109,20.791-81.174,61.38-81.174,61.38
	s110.354-44.216,117.558-32.181c8.586,14.341-26.769,33.464-53.488,45.434c29.859-11.636,74.116-26.896,80.31-17.819
	c13.109,19.21-81.854,56.465-81.854,56.465s79.902-24.787,81.854-15.245c6.115,29.886-96.011,57.026-96.011,57.026
	s-34.759,63.402-85.178,86.491c-83.097,101.911-254.867,275.38-371.39,354.186c-5.612,29.991-9.08,63.114-8.781,98.934
	c0.427,0.295,0.964,0.584,1.447,0.876c51.06,30.829,414.526,45.725,567.852,28.726c28.307-3.138,49.468-7.36,60.153-12.772
	c2.086-1.057,3.668-3.21,4.871-6.224c9.857-24.701-7.464-110.949-11.263-191.109c-4.263-89.939,8.527-172.142,8.527-172.142
	s4.842-8.617,10.957-22.067c3.441-7.568,7.278-16.667,10.893-26.639c54.958-44.025,121.494-101.19,151.598-127.258
	c10.168-8.805,16.19-14.071,16.19-14.071S1163.086,936.888,1132.059,884.114z"/>
<path style="fill:#BF7776;" d="M1029.604,530.634c-1.144,0.071-2.361,0.143-3.576,0.143c-26.681,0-48.356-16.81-48.356-37.482
	c0-20.673,21.674-37.411,48.356-37.411c1.497,0,2.995,0,4.493,0.142c-0.577-19.509-1.596-38.76-2.613-57.131
	c-0.574,0.384-1.201,0.648-1.919,0.612c-2.539-0.156-10.433-3.517-28.641-5.706c-19.068-2.267-37.473,0.722-40.246-0.468
	c-11.489-5.1-12.074-23.113-0.802-29.072c2.052-0.977,21.257-2.754,41.127,1.25c15.337,3.127,27.156,16.803,29.033,19.05
	c0.195,0.234,0.31,0.471,0.487,0.706c-1.925-15.966-5.448-52.104-1.782-78.475c0.015-1.511,0.006-3.024-0.006-4.538
	c-7.61-92.533-104.438-77.09-104.438-77.09s-29.457,76.975-91.432,97.824c-15.082-3.551-0.009-59.532-0.009-59.532
	s-38.781,99.558-132.754,117.807c-10.404,37.652,6.68,85.453-7.158,96.679c-15.986-10.426-19.758-49.261-50.457-44.519
	c-21.271,3.371-35.894,26.842-27.026,60.255c8.12,30.374,27.423,43.617,48.507,40.459c3.28-0.514,6.824-1.693,10.465-3.325
	l-2.527,131.195l-2.174,112.856l-47.713,12.912l0,0c0.005,0.008,73.269,108.23,199.359,98.617
	c85.908-6.586,92.758-90.213,92.758-90.22l0,0l-45.231-16.087c-51.064-28.07-92.582-70.584-121.965-161.804
	c74.535,67.659,121.965,75.725,121.965,75.725s65.738,16.795,92.064,0c6.184-3.945,12.718-10.628,19.229-19.243
	c24.187-31.996,48.073-91.049,52.613-139.167c0.158-1.667,0.292-3.32,0.401-4.959L1029.604,530.634z"/>
<path style="fill:#AB5555;" d="M942.549,499.72c1.873,1.841,3.353,3.442,4.252,4.742c0.917,1.318,1.183,2.2,1.189,2.797l0.001,0.03
	l0.004,0.306c-0.023,3.22-1.404,5.698-4,8.108c-3.867,3.57-10.434,6.173-15.978,7.657c-2.771,0.755-5.285,1.262-7.088,1.576
	c-0.902,0.158-1.627,0.267-2.119,0.336c-0.491,0.069-0.721,0.093-0.722,0.094c-1.963,0.221-3.375,1.992-3.153,3.956
	c0.221,1.963,1.992,3.374,3.956,3.153c0.164-0.026,8.629-0.962,17.406-4.275c4.391-1.673,8.892-3.924,12.513-7.206
	c3.606-3.237,6.361-7.823,6.338-13.398l-0.006-0.47c-0.054-2.572-1.112-4.8-2.469-6.749c-2.412-3.421-5.932-6.513-9.927-10.407
	c-5.988-5.806-13.055-13.185-18.706-24.22c-5.64-11.035-9.897-25.758-9.905-46.394c0-1.975-1.601-3.576-3.576-3.576
	c-1.975,0-3.577,1.601-3.577,3.576l0,0c-0.045,32.939,10.58,52.803,21.24,65.591C933.527,491.34,938.801,496.019,942.549,499.72z"/>
<path style="fill:#AB5555;" d="M865.328,780.085v-86.079c0,0-47.429-8.065-121.965-75.725
	C772.746,709.501,814.264,752.014,865.328,780.085z"/>
<path style="fill:#232320;" d="M844.35,442.702c0.06-10.003-6.7-18.109-15.121-18.188c-8.206,0-15.044,8.048-15.025,18.17
	c-0.02,9.925,6.74,18.071,14.984,18.051C837.59,460.736,844.41,452.647,844.35,442.702z"/>
<path style="fill:#232320;" d="M776.382,391.886c-6.018,7.248-1.233,16.841,3.009,16.665c2.617-0.098,18.54-7.777,36.729-9.905
	c19.01-2.267,37.531,0.938,40.208-0.255c11.566-5.002,12.112-23.093,0.899-29.091c-1.915-1.016-21.023-2.247-41.029,1.016
	C796.25,373.541,778.218,389.62,776.382,391.886z"/>
<path style="fill:#232320;" d="M984.023,455.852c8.166,0.038,15.042-8.089,15.004-18.054c0.078-10.003-6.78-18.071-15.025-18.13
	c-8.4-0.04-15.122,8.048-15.16,18.013C968.785,447.724,975.525,455.852,984.023,455.852z"/>
<path style="fill:#AB5555;" d="M665.737,492.495c-0.011-10.01-1.778-20.602-5.23-29.054c-1.739-4.225-3.895-7.938-6.687-10.774
	c-2.757-2.819-6.39-4.792-10.507-4.78c-2.488-0.003-5.024,0.708-7.48,2.043c-2.463,1.338-4.88,3.286-7.32,5.875
	c-1.355,1.438-1.287,3.701,0.151,5.056c1.438,1.355,3.701,1.287,5.056-0.151c2.045-2.174,3.915-3.622,5.522-4.491
	c1.615-0.871,2.933-1.176,4.071-1.179c1.831,0.012,3.529,0.775,5.421,2.656c2.804,2.792,5.426,8.063,7.154,14.359
	c1.753,6.291,2.699,13.584,2.696,20.44c0,0.795-0.062,1.551-0.087,2.332c-1.846-1.77-3.705-3.26-5.563-4.464
	c-3.776-2.44-7.583-3.755-11.259-3.762c-4.097-0.04-7.974,1.814-10.44,5.039c-2.491,3.212-3.692,7.515-3.696,12.519
	c0,1.975,1.601,3.577,3.577,3.577c1.975,0,3.577-1.601,3.577-3.577h-0.001c-0.003-3.873,0.956-6.562,2.184-8.121
	c1.254-1.546,2.656-2.244,4.799-2.285c1.909-0.007,4.457,0.724,7.373,2.614c2.911,1.882,6.158,4.896,9.423,9.203
	c0.861,1.135,2.324,1.652,3.706,1.31c1.383-0.341,2.437-1.48,2.67-2.885C665.451,500.366,665.737,496.478,665.737,492.495z"/>
<path style="fill:#E78D9D;" d="M1030.919,495.093c0.013-1.161,0.023-2.319,0.031-3.481c0.032-4.694,0.019-9.394-0.025-14.094
	c-0.013-1.432-0.017-2.862-0.036-4.293c-0.057-4.211-0.156-8.412-0.261-12.61c-0.038-1.527-0.051-3.063-0.095-4.588
	c-0.004-0.001-0.009,0-0.014-0.001c-1.497-0.142-2.995-0.142-4.493-0.142c-26.681,0-48.356,16.738-48.356,37.411
	c0,20.672,21.674,37.482,48.356,37.482c1.216,0,2.432-0.071,3.576-0.143c0.404-5.99,0.704-12.038,0.923-18.12
	c0.015-0.413,0.023-0.828,0.037-1.242C1030.747,505.902,1030.858,500.504,1030.919,495.093z"/>
<ellipse style="fill:#E78D9D;" cx="814.205" cy="504.16" rx="48.358" ry="37.449"/>
<path style="fill:#77ACAA;" d="M593.746,1041.25c0-5.706-0.368-10.982-1.157-15.785c-6.195-37.389-9.425-100.221-57.955-151.696
	c-1.355-1.437-3.619-1.504-5.056-0.148c-1.437,1.355-1.504,3.618-0.148,5.056c46.575,49.378,49.862,109.811,56.101,147.95
	c0.712,4.322,1.063,9.226,1.063,14.623c0.026,28.971-10.177,71.818-25.636,117.772c-11.916,35.472-26.941,72.836-42.694,107.485
	c3.672-2.326,7.327-4.651,10.958-6.972c14.207-32.002,27.637-65.853,38.517-98.235
	C583.298,1114.927,593.719,1071.781,593.746,1041.25z"/>
<path style="fill:#77ACAA;" d="M1033.111,849.068c1.792,3.785,3.174,9.303,4.04,15.995c0.874,6.695,1.267,14.569,1.266,23.175
	c0.005,29.364-4.547,67.17-9.114,97.538c-2.282,15.19-4.565,28.533-6.277,38.074c-0.856,4.77-1.569,8.59-2.067,11.215
	c-0.499,2.624-0.78,4.041-0.781,4.046l-0.196,0.983l0.344,0.942c0.002,0.005,0.689,1.885,1.904,5.325
	c4.252,12.04,14.905,43.014,24.476,77.375c9.58,34.326,18.039,72.186,18.013,97.359c0.019,9.217-1.176,16.683-3.462,21.328
	c-0.864,1.776-0.123,3.916,1.654,4.78c1.777,0.863,3.917,0.123,4.78-1.654c3.055-6.349,4.162-14.655,4.182-24.453
	c-0.033-30.409-11.272-75.764-22.451-113.85c-10.1-34.344-20.16-62.523-22.037-67.724c1.93-9.944,18.165-94.784,18.185-151.282
	c-0.001-8.823-0.396-16.97-1.326-24.101c-0.939-7.135-2.38-13.249-4.661-18.115c-0.841-1.787-2.972-2.554-4.759-1.712
	C1033.036,845.15,1032.27,847.281,1033.111,849.068L1033.111,849.068z"/>
<path style="fill:#AB5555;" d="M871.147,560.657c-1.858-0.671-3.908,0.292-4.578,2.151c-0.67,1.857,0.293,3.907,2.151,4.578
	l-0.001,0c15.437,5.57,31.81,8.315,48.182,8.316c23.046-0.002,46.1-5.438,66.562-16.162c1.75-0.917,2.424-3.078,1.508-4.827
	c-0.918-1.75-3.079-2.424-4.828-1.508c-19.381,10.16-41.32,15.346-63.241,15.344C901.328,568.548,885.769,565.933,871.147,560.657z"
	/>
<path style="fill:#AB5555;" d="M941.571,589.925c-0.138-1.97-1.847-3.456-3.817-3.318c-8.091,0.566-16.181,1.133-24.27,1.699
	c-1.971,0.138-3.456,1.847-3.318,3.818c0.138,1.971,1.847,3.456,3.818,3.318l-0.001-0.001c8.091-0.566,16.18-1.133,24.27-1.7
	C940.223,593.604,941.709,591.895,941.571,589.925z"/>
<path style="fill:#668BC0;" d="M1698.438,913.67c-9.266,1.882-17.39,2.226-20.392-1.177l-5.622,20.642
	C1681.852,930.693,1693.482,922.785,1698.438,913.67z"/>
<path style="fill:#668BC0;" d="M1709.796,795.914c14.308-9.225,25.703-15.914,25.703-15.914v0l40.18-147.535
	c2.442-8.968-8.611-16.025-17.623-13.754L1709.796,795.914z"/>
<path style="fill:#668BC0;" d="M1707.432,845.667c0,0-5.056,1.588-12.076,3.272l-0.592,2.171
	C1702.078,847.781,1707.432,845.667,1707.432,845.667z"/>
<path style="fill:#668BC0;" d="M1706.74,885.599L1706.74,885.599c-0.002,0.001-10.527,2.028-22.167,2.931l-3.041,11.166
	C1690.03,891.618,1706.738,885.6,1706.74,885.599z"/>
<path style="fill:#94A6CE;" d="M1648.129,646.403c-7.22,1.819-12.9,7.383-14.868,14.564l-45.404,165.704l-32.844,119.866
	c-2.235,8.156,5.184,15.679,13.371,13.557l104.041-26.959l5.622-20.642c-0.394-0.446-0.731-0.934-0.938-1.515
	c-1.406-3.937,0.757-7.798,4.424-11.283l3.041-11.166c-3.147,0.244-6.354,0.4-9.48,0.415l-4.125,15.146
	c-0.702,2.577-2.731,4.581-5.316,5.251l-83.099,21.533c-6.867,1.78-13.091-4.531-11.216-11.374l65.641-239.562
	c1.651-6.023,6.416-10.691,12.472-12.217l79.868-20.12c5.523-1.391,10.499,3.682,9.003,9.177l-39.938,146.644
	c3.904-2.625,7.75-5.148,11.413-7.51l48.26-177.204L1648.129,646.403z"/>
<path style="fill:#94A6CE;" d="M1694.764,851.11l0.592-2.171c-3.031,0.727-6.423,1.47-9.943,2.113l-1.422,5.221
	C1687.773,854.361,1691.469,852.61,1694.764,851.11z"/>
<path style="fill:#BCD5F0;" d="M1738.321,656.779c1.496-5.495-3.48-10.568-9.003-9.177l-79.868,20.12
	c-6.056,1.526-10.822,6.194-12.472,12.217l-65.641,239.562c-1.875,6.842,4.349,13.153,11.216,11.374l83.099-21.533
	c2.585-0.67,4.614-2.674,5.316-5.251l4.125-15.146c-10.95,0.053-20.643-1.667-21.069-7.892c-0.519-7.589,15.383-17.408,29.966-24.78
	l1.422-5.221c-14.837,2.711-31.805,3.606-32.335-6.318c-0.454-8.498,23.218-26.458,45.305-41.31L1738.321,656.779z"/>
<path style="fill:#AB5555;" d="M1200.995,1362.312c-0.138,1.97,1.347,3.68,3.318,3.818c1.97,0.138,3.679-1.348,3.818-3.318
	c3.232-46.234,21.414-91.372,51.131-126.937c1.266-1.516,1.064-3.772-0.451-5.037c-1.516-1.267-3.772-1.064-5.037,0.452l0,0
	C1223.076,1268.041,1204.344,1314.544,1200.995,1362.312z"/>
<path style="fill:#AB5555;" d="M1569.428,1057.264c1.899,0.544,3.879-0.555,4.423-2.453c12.263-42.844,40.967-80.87,78.811-104.404
	c1.677-1.043,2.191-3.249,1.148-4.926c-1.043-1.677-3.249-2.191-4.926-1.147h-0.001c-39.386,24.513-69.126,63.912-81.909,108.508
	C1566.431,1054.74,1567.529,1056.72,1569.428,1057.264z"/>
<path style="fill:#AB5555;" d="M1740.553,829.53c1.651-1.085,2.111-3.302,1.026-4.953c-1.084-1.651-3.302-2.11-4.952-1.026
	c-9.046,5.946-17.745,10.026-26.364,15.165c-1.696,1.013-2.25,3.209-1.237,4.905c1.012,1.696,3.208,2.25,4.905,1.237l0-0.001
	C1722.123,839.957,1730.995,835.799,1740.553,829.53z"/>
<path style="fill:#AB5555;" d="M1736.247,872.679c-3.323,0.457-7.823,1.69-12.477,2.991c-4.62,1.3-9.329,2.673-12.445,3.359
	c-1.929,0.426-3.147,2.335-2.721,4.264c0.426,1.929,2.335,3.147,4.265,2.721h-0.001c3.531-0.782,8.248-2.169,12.837-3.458
	c4.554-1.286,9.044-2.468,11.496-2.788c1.957-0.264,3.331-2.064,3.068-4.021C1740.005,873.789,1738.204,872.416,1736.247,872.679z"
	/>
<path style="fill:#AB5555;" d="M1701.012,915.162c0.596,1.883,2.605,2.927,4.489,2.332l0,0c3.571-1.129,7.141-2.257,10.711-3.386
	c-2.254,2.741-4.509,5.482-6.763,8.222c-1.255,1.526-1.036,3.78,0.49,5.035c1.526,1.255,3.78,1.035,5.034-0.49
	c4.81-5.847,9.62-11.695,14.429-17.542c1.009-1.226,1.09-2.959,0.201-4.275c-0.889-1.315-2.528-1.886-4.041-1.407
	c-7.406,2.341-14.812,4.683-22.218,7.024C1701.46,911.269,1700.417,913.279,1701.012,915.162z"/>
<path style="fill:#668BC0;" d="M1672.785,651.133c0.48,1.916,2.422,3.081,4.338,2.601l35.842-8.971
	c1.916-0.48,3.081-2.422,2.601-4.338c-0.48-1.916-2.422-3.081-4.338-2.601l-35.842,8.971
	C1673.47,647.275,1672.306,649.216,1672.785,651.133z"/>
<path style="fill:#AB5555;" d="M239.763,1454.333c38.608-51.188,87.664-83.18,147.733-106.534c1.841-0.715,2.753-2.788,2.039-4.629
	c-0.715-1.841-2.788-2.754-4.629-2.039l-0.001,0c-60.88,23.637-111.35,56.473-150.854,108.895c-1.189,1.577-0.875,3.821,0.703,5.01
	C236.331,1456.225,238.574,1455.911,239.763,1454.333z"/>
</svg>
